<svg width="336" height="320" viewBox="0 0 336 320" fill="none" xmlns="http://www.w3.org/2000/svg">
<path d="M167.246 0C166.756 0.544 166.18 0.912 165.605 1.184C163.574 2.288 157.668 4.656 158.65 7.952C159.902 11.888 167.619 6.672 170.834 7.76C174.1 8.864 175.166 13.44 178.364 9.232C179.904 7.136 180.479 3.664 180.683 1.104L180.581 0L167.246 0ZM276.733 0C276.733 0.816 277.122 1.648 278.002 2.656C279.44 4.208 281.674 6.496 283.586 6.944C285.82 7.584 288.731 7.584 290.947 6.768C292.098 6.4 292.978 5.488 294.044 4.928C295.11 4.288 297.327 3.936 298.004 2.928C298.478 2.192 298.393 1.104 298.19 0L276.733 0ZM326.704 4.576C324.098 4.656 319.546 8.496 318.192 10.512C317.346 11.888 315.011 16.64 315.214 18.096C315.501 20.656 323.607 30.08 326.315 30.704C329.699 31.536 330.951 28.624 332.694 26.064C334.725 23.12 335.013 21.84 335.503 18.544C335.977 15.088 336.857 13.712 333.862 11.056C332.508 9.872 328.244 4.384 326.704 4.576ZM298.292 17.728C295.787 17.728 295.787 21.392 298.292 21.392C300.813 21.392 300.813 17.728 298.292 17.728ZM203.984 30.976H203.477C203.003 31.072 202.428 31.536 201.751 31.984C201.204 33.0948 200.522 34.1418 199.72 35.104C198.366 36.656 194.203 38.304 194.406 40.672C194.491 42.224 196.149 43.408 198.18 44.512C199.906 44.784 201.649 45.616 203.189 46.704L203.781 46.976C203.967 47.072 204.17 47.072 204.357 47.072C207.927 47.616 214.307 42.128 213.833 38.48C213.461 36.08 206.726 31.28 203.984 30.976ZM17.9252 31.168C15.2176 31.168 12.3409 32.544 10.1071 33.456C9.6164 33.632 9.14258 33.904 8.65184 34.096C7.97495 34.64 7.50113 35.184 7.3996 36.016C7.29807 36.384 7.50113 36.752 7.3996 37.2C7.29807 38.016 6.53657 38.944 6.53657 39.76C6.53657 41.312 9.921 42.224 12.1209 42.496C14.5577 42.784 17.0622 42.048 19.279 41.504C21.2081 41.024 23.5433 40.576 25.2694 39.856C27.4016 38.944 27.4016 37.744 27.2155 36.192C27.0907 35.3379 26.8282 34.5069 26.437 33.728C26.234 33.632 26.1494 33.456 25.9463 33.36C24.5079 32.352 20.1589 31.168 17.9252 31.168ZM48.182 45.616C46.1513 45.616 45.3729 48.352 44.0192 49.632C41.7008 51.92 40.1609 53.376 42.6654 56.208C44.1207 57.76 46.3375 60.048 48.2835 60.512C50.6981 61.134 53.2532 61.0672 55.6278 60.32C56.7785 59.968 57.6584 59.04 58.7076 58.496C59.7737 57.856 62.0074 57.488 62.6674 56.48C63.6489 54.928 62.2951 51.456 61.9905 49.904C60.8398 44.688 52.5141 46.064 48.182 45.616ZM250.622 46.64C247.44 47.088 248.98 55.568 249.488 56.752C252.483 56.848 252.669 54.112 252.771 52.64C252.872 51.728 253.549 47.616 252.297 46.976C251.783 46.7026 251.192 46.5853 250.605 46.64H250.622ZM114.618 61.36C112.097 61.264 108.645 62.56 107.714 64.08C106.547 65.904 107.037 68.56 107.037 70.56C109.169 70.752 112.351 67.552 114.094 66.544C116.023 65.44 119.306 64.08 116.7 61.968C116.09 61.5643 115.362 61.3516 114.618 61.36ZM69.5209 62.88C68.9963 62.864 68.4886 62.896 67.9979 62.976C61.0428 63.984 48.9604 69.2 52.8187 77.424C57.2692 86.736 68.184 83.536 76.4082 82.816C80.7572 82.448 86.443 80.896 89.8274 78.24C94.1764 74.768 89.7428 74.4 90.5043 71.296C87.1597 69.5843 83.7444 67.999 80.2664 66.544C77.2204 65.024 73.1422 62.944 69.5209 62.864V62.88ZM126.007 80.704C124.146 80.592 121.607 81.936 120.947 83.456C120.186 85.28 120.473 88.016 120.473 90.032C122.013 90.208 124.332 86.928 125.686 85.92C127.039 84.816 129.459 83.456 127.53 81.344C127.337 81.1431 127.102 80.9824 126.84 80.8722C126.578 80.762 126.294 80.7047 126.007 80.704ZM194.593 92.688C193.053 92.864 192.765 94.32 192.376 95.696C191.783 97.808 191.411 99.904 190.92 102C190.142 104.928 190.531 109.952 192.562 112.336C194.017 113.984 195.76 115.168 197.3 116.624C198.755 118.096 200.109 120.192 201.751 121.472C203.189 122.576 205.507 123.024 207.25 123.76C208.807 124.4 211.413 125.68 213.055 125.408C222.142 124.128 215.373 108.944 212.665 104.928C212.665 104.832 210.161 100.64 209.67 100.176C208.215 98.72 206.387 98.624 204.357 98.16C202.599 97.743 200.973 96.9306 199.618 95.792C198.654 95.056 196.048 92.592 194.593 92.688ZM162.61 97.168C160.088 97.168 160.088 100.816 162.61 100.816C165.114 100.816 165.114 97.168 162.61 97.168ZM277.308 101.536C276.547 101.632 275.887 102.064 275.684 102.816C275.379 103.936 275.193 105.296 275.768 106.4C276.259 107.216 277.223 107.76 278.29 107.76C280.219 107.76 282.063 105.936 281.471 104.016C281.099 102.736 279.829 102.096 278.594 101.728C278.391 101.648 278.29 101.552 278.086 101.552C277.829 101.508 277.567 101.503 277.308 101.536ZM148.294 101.632C147.143 101.728 146.466 102.464 146.364 103.472C146.28 104.384 146.466 105.392 146.754 106.208C147.041 107.12 148.107 107.76 149.173 107.488C150.138 107.216 150.916 106.208 150.527 105.2C150.426 104.832 150.324 104.56 150.24 104.192V103.472C150.324 102.464 149.275 101.552 148.294 101.632ZM178.449 118.176C175.944 118.176 175.944 121.84 178.449 121.84C180.97 121.84 180.97 118.176 178.449 118.176ZM295.482 127.12C293.283 127.088 291.387 127.696 290.947 129.888C290.558 131.712 292.098 133.808 292.876 135.36C293.756 137.376 294.518 139.488 296.65 140.848C297.429 140.304 298.579 140.208 299.459 139.76C300.035 139.488 300.61 138.928 301.185 138.656C303.419 137.568 303.893 137.744 304.857 135.552C305.193 134.721 305.454 133.865 305.636 132.992C305.839 132.448 306.6 131.072 306.414 130.528C306.127 129.056 302.827 128.24 301.676 128.048C300.136 127.776 297.665 127.136 295.482 127.12ZM92.1458 158.56C91.2502 158.535 90.3599 158.699 89.5398 159.04C87.4245 159.952 86.443 161.968 84.7169 163.248C83.4478 164.16 82.2971 164.432 80.8418 165.072C76.5943 166.896 77.745 170.464 80.1649 173.76C81.9079 176.048 85.3938 177.6 88.186 178.608C91.1812 179.52 94.278 181.616 97.4763 180.528C98.9993 179.968 103.061 176.592 103.653 175.12C104.228 173.68 103.467 172.112 103.264 170.64C102.874 168.56 103.077 166.528 103.162 164.336C102.976 164.336 103.162 162.24 103.077 161.968C102.401 160.32 102.011 160.592 99.9807 160.32C97.3747 159.984 94.7687 158.608 92.1458 158.56ZM19.5497 172C17.1637 172.192 13.83 173.616 12.2224 173.76C9.43026 174.032 6.53657 173.024 4.09978 174.848C0.444591 178.96 -2.07681 184.992 2.37372 189.664C6.51965 193.952 15.2346 192.4 18.619 187.648C20.2435 185.28 24.4064 173.936 21.4958 172.288C21.0219 172 20.3281 171.936 19.5328 172H19.5497ZM328.142 181.056C327.635 181.072 327.025 181.2 326.315 181.44C322.067 182.88 319.749 192.4 321.78 195.872C323.709 199.072 328.159 200.72 331.341 202.464C333.473 199.616 331.341 192.304 331.256 188.928C331.171 185.808 331.747 180.928 328.142 181.056ZM288.477 194.768C288.003 194.768 287.512 194.928 287.089 195.248C286.311 195.792 285.735 196.608 285.245 197.328C284.568 198.256 284.754 199.44 285.735 199.888C286.581 200.368 287.851 200.176 288.443 199.344C288.612 199.072 288.815 198.8 289.018 198.432C289.018 198.336 289.103 198.336 289.204 198.256C289.306 198.16 289.492 197.984 289.695 197.888C290.457 197.344 290.457 195.968 289.78 195.328C289.407 194.96 288.934 194.784 288.477 194.768ZM239.859 203.232C239.064 203.2 238.269 203.216 237.456 203.232L234.224 203.376C232.278 203.376 229.385 202.912 228.031 204.656C227.066 206.016 227.929 210.128 227.929 211.856C227.845 215.696 225.729 223.216 228.911 226.496C230.434 228.048 233.057 228.048 235.273 228.048C239.047 228.144 240.012 228.048 242.821 230.24C241.958 231.888 239.825 230.704 239.047 232.256C241.467 234.992 247.948 229.52 250.453 228.688C254.802 227.232 257.018 226.128 259.151 222.016C261.858 216.992 257.12 216.16 254.311 212.784C252.111 209.952 250.453 206.384 246.865 204.736C244.675 203.753 242.283 203.24 239.859 203.232ZM279.745 212.576C278.323 212.528 276.936 214.16 278.086 215.52C279.542 217.36 282.639 215.072 281.099 213.248C280.941 213.047 280.737 212.882 280.503 212.766C280.269 212.649 280.009 212.585 279.745 212.576ZM189.973 218.528C189.854 218.448 189.567 218.528 188.704 218.72C187.536 218.912 186.284 218.912 185.218 219.28C184.439 221.28 183.289 224.208 185.793 225.488C187.147 226.032 191.496 226.496 192.173 224.752C192.477 224.112 191.699 222.928 191.411 222.384C190.92 221.376 190.734 220.096 190.244 219.28C190.057 218.816 190.091 218.592 189.973 218.528ZM220.348 239.696C217.556 239.632 213.951 240.848 211.701 240.576C208.604 240.576 206.861 240.48 206.489 243.584C206.184 245.776 206.963 250.256 207.64 252.448C207.887 253.699 208.469 254.87 209.331 255.847C210.193 256.825 211.306 257.577 212.564 258.032C214.205 258.768 217.979 260.768 219.722 260.128C223.969 258.576 224.359 248.528 224.257 245.056C224.172 243.04 224.934 241.664 222.819 240.304C222.07 239.891 221.215 239.681 220.348 239.696ZM323.387 240.752H322.846C321.103 241.024 318.97 241.12 317.904 242.672C317.444 243.415 317.304 244.298 317.515 245.136C317.617 245.776 318.107 246.608 318.107 247.328C318.006 248.432 318.97 249.616 320.324 249.344C323.032 248.8 326.602 245.696 326.23 242.864C326.129 241.936 325.35 241.488 324.572 241.392C324.284 241.056 323.895 240.816 323.387 240.752ZM92.2304 244.992C90.6228 244.992 89.1844 245.696 87.5091 245.952C85.0892 246.336 82.5848 247.232 80.2664 247.424C77.5589 247.696 74.6652 246.88 71.9576 247.248C67.4056 247.888 64.0211 252.368 63.4458 256.56C62.4812 263.152 66.1533 263.872 71.5684 265.424C74.5637 266.352 76.019 265.792 78.9127 265.984C81.0448 266.08 82.4832 267.632 84.6154 267.904C87.4245 268.272 91.8581 266.08 93.3134 263.792C94.8533 261.232 93.8888 256.928 98.627 257.664C102.688 257.488 102.113 252.272 100.268 249.888C99.1177 248.432 95.7333 245.776 93.8888 245.232C93.3543 245.064 92.7935 244.983 92.2304 244.992ZM131.287 251.024C127.648 251.2 121.641 255.344 121.912 257.664C122.115 259.856 126.65 262.96 128.292 264.24C129.645 265.248 131.777 267.984 133.419 268.176C133.52 265.248 134.383 263.52 134.096 260.688C133.91 258.576 131.49 253.824 133.808 252.368C133.436 251.328 132.488 250.96 131.27 251.024H131.287ZM159.614 263.424C159.428 263.424 159.225 263.472 159.022 263.52C158.548 263.52 158.058 263.6 157.668 264.064C156.145 265.712 155.164 268.08 155.841 270.272C156.704 272.928 159.327 273.664 161.933 273.2C162.796 273.024 163.287 272.192 163.371 271.472C163.678 268.794 162.884 266.108 161.154 263.968C160.799 263.552 160.207 263.408 159.631 263.424H159.614ZM24.2372 265.744C22.2065 265.712 19.9051 265.792 18.2298 265.984C15.0315 270.096 16.4868 275.312 17.1637 280.416C17.2483 281.52 17.4514 282.608 17.6375 283.712C17.8406 284.528 18.0267 285.184 18.2298 285.728C18.9067 287.376 18.9913 290.56 21.0219 291.2C23.831 292.128 24.5079 289.28 25.574 287.728C28.18 283.888 34.932 269.088 28.7554 266.256C27.2936 265.859 25.7738 265.686 24.2541 265.744H24.2372ZM200.871 269.36C199.72 269.456 198.654 269.456 198.079 269.728C191.31 272.464 191.022 277.504 189.567 283.536C187.739 290.736 185.708 295.136 191.8 296.784C194.203 297.424 198.84 299.44 201.649 297.056C203.578 291.664 205.897 286.368 207.741 280.88C208.13 279.6 209.67 275.952 209.569 274.752C209.569 273.744 209.095 273.024 208.503 272.384C207.453 272.016 206.303 272.016 205.507 272.016C203.392 272.192 201.446 271.552 200.871 269.36ZM300.593 295.84C298.765 295.728 296.244 297.072 295.516 298.592C294.738 300.416 295.026 303.152 295.026 305.168C296.582 305.264 299.002 302.064 300.255 301.056C301.608 299.952 304.028 298.592 302.082 296.48C301.894 296.282 301.664 296.123 301.408 296.013C301.152 295.903 300.874 295.844 300.593 295.84ZM106.868 295.152C104.99 295.184 103.128 295.504 102.502 296.048C101.622 296.784 101.994 298.336 101.148 299.072C100.37 299.808 98.2378 299.888 97.2732 300.16C95.5302 299.248 96.4102 300.448 95.9194 300.896C95.4456 301.36 94.9549 303.088 93.8888 304.096C92.0612 305.744 88.1014 307.744 92.9242 309.12C94.3795 309.488 95.9194 308.944 97.3747 309.312C99.0162 309.76 100.759 311.04 102.113 311.952C104.431 313.504 107.426 316.976 109.846 314.064C111.285 312.32 111.386 306.928 111.877 304.736C112.249 302.448 113.603 297.696 111.386 295.968C110.659 295.36 108.746 295.12 106.868 295.152ZM319.918 298.56C317.278 298.768 314.046 303.52 312.878 304.832C311.152 306.832 302.454 312.592 304.587 315.424C308.529 311.232 314.232 313.328 318.294 310.304C320.037 309.024 323.218 301.824 322.253 300.16C321.61 298.928 320.798 298.496 319.918 298.56ZM283.417 312.048C281.386 312.048 280.608 314.784 279.254 316.064C277.714 317.536 276.547 318.72 276.648 320H298.105C297.902 318.624 297.429 317.168 297.225 316.336C296.075 311.136 287.749 312.496 283.417 312.048ZM174.946 315.248C174.083 315.264 173.203 315.472 172.374 315.888C170.428 316.8 168.989 318.624 167.246 320H180.683L180.581 318.992C180.581 318.992 179.041 316.8 178.94 316.624C177.831 315.719 176.41 315.23 174.946 315.248Z" fill="white"/>
</svg>
